<?xml version="1.0" standalone="no"?>
<!DOCTYPE svg PUBLIC "-//W3C//DTD SVG 20010904//EN"
 "http://www.w3.org/TR/2001/REC-SVG-20010904/DTD/svg10.dtd">
<svg version="1.0" xmlns="http://www.w3.org/2000/svg"
 width="512.000000pt" height="512.000000pt" viewBox="0 0 512.000000 512.000000"
 preserveAspectRatio="xMidYMid meet">

<g transform="translate(0.000000,512.000000) scale(0.100000,-0.100000)"
fill="#000000" stroke="none">
<path d="M2357 4764 c-133 -29 -255 -102 -319 -190 -20 -28 -44 -47 -67 -55
-99 -32 -159 -83 -199 -168 -31 -67 -41 -204 -22 -319 16 -104 90 -324 148
-447 l48 -100 -4 140 c-7 250 46 385 178 444 62 28 167 29 203 1 63 -50 116
-64 237 -64 120 0 128 2 305 69 98 37 180 38 233 2 104 -68 135 -283 82 -566
l-8 -46 24 30 c40 49 91 146 108 205 24 87 46 255 46 359 0 166 -52 297 -154
386 -65 58 -125 89 -226 119 l-85 25 65 1 65 1 -35 29 c-19 17 -69 47 -109 68
-67 33 -83 37 -150 37 -90 0 -151 -25 -214 -88 -24 -24 -37 -33 -33 -21 24 64
98 128 164 140 24 5 30 9 20 15 -21 14 -227 9 -301 -7z"/>
<path d="M2060 2511 c-36 -26 -98 -83 -139 -125 -40 -42 -81 -76 -91 -76 -31
0 -363 -88 -455 -120 -176 -63 -202 -82 -245 -186 -94 -226 -176 -627 -235
-1154 l-23 -205 51 -48 c74 -67 268 -201 399 -275 62 -34 116 -62 120 -62 3 0
9 8 11 18 4 13 5 12 6 -5 1 -29 76 -64 281 -133 290 -99 507 -134 825 -133
176 0 249 4 364 22 239 36 468 102 666 191 51 23 65 34 66 52 1 17 3 18 6 5 2
-9 7 -17 10 -17 15 0 188 100 288 165 99 65 266 193 278 212 7 11 -28 331 -59
548 -66 459 -174 854 -250 914 -68 53 -219 107 -484 171 l-175 43 -79 79 c-67
67 -192 168 -208 168 -3 0 -7 -117 -11 -259 -3 -143 -8 -265 -13 -272 -4 -8
-16 5 -31 36 -14 26 -28 43 -32 39 -4 -5 -20 -81 -35 -169 -38 -222 -119 -624
-171 -846 -49 -209 -123 -446 -135 -433 -4 5 -26 59 -48 119 -59 162 -159 604
-242 1075 -22 124 -44 234 -49 245 -8 17 -12 13 -34 -33 -15 -32 -28 -49 -32
-42 -4 6 -9 130 -13 276 -3 145 -8 264 -11 264 -3 0 -35 -22 -71 -49z"/>
</g>
</svg>
